<mxfile host="app.diagrams.net" modified="2020-10-17T08:34:20.293Z" agent="5.0 (Windows NT 10.0; Win64; x64) AppleWebKit/537.36 (KHTML, like Gecko) Chrome/85.0.4183.121 Safari/537.36 OPR/71.0.3770.271" etag="1iWD8jx9fQpkwNrb89UM" version="13.8.0" type="github" pages="2">
  <diagram id="C5RBs43oDa-KdzZeNtuy" name="Page-1">
    <mxGraphModel dx="742" dy="477" grid="1" gridSize="10" guides="1" tooltips="1" connect="1" arrows="1" fold="1" page="1" pageScale="1" pageWidth="827" pageHeight="1169" math="0" shadow="0">
      <root>
        <mxCell id="WIyWlLk6GJQsqaUBKTNV-0" />
        <mxCell id="WIyWlLk6GJQsqaUBKTNV-1" parent="WIyWlLk6GJQsqaUBKTNV-0" />
        <mxCell id="31C0_dviIw9XybhIcKqn-0" value="" style="rounded=1;whiteSpace=wrap;html=1;fillColor=#f8cecc;strokeColor=#b85450;" parent="WIyWlLk6GJQsqaUBKTNV-1" vertex="1">
          <mxGeometry x="230" y="170" width="120" height="60" as="geometry" />
        </mxCell>
        <mxCell id="31C0_dviIw9XybhIcKqn-1" value="OFF" style="text;html=1;strokeColor=none;fillColor=none;align=center;verticalAlign=middle;whiteSpace=wrap;rounded=0;" parent="WIyWlLk6GJQsqaUBKTNV-1" vertex="1">
          <mxGeometry x="270" y="190" width="40" height="20" as="geometry" />
        </mxCell>
        <mxCell id="31C0_dviIw9XybhIcKqn-2" value="" style="rounded=1;whiteSpace=wrap;html=1;fillColor=#d5e8d4;strokeColor=#82b366;" parent="WIyWlLk6GJQsqaUBKTNV-1" vertex="1">
          <mxGeometry x="40" y="284.5" width="120" height="60" as="geometry" />
        </mxCell>
        <mxCell id="31C0_dviIw9XybhIcKqn-3" value="ON" style="text;html=1;strokeColor=none;fillColor=none;align=center;verticalAlign=middle;whiteSpace=wrap;rounded=0;" parent="WIyWlLk6GJQsqaUBKTNV-1" vertex="1">
          <mxGeometry x="80" y="304.5" width="40" height="20" as="geometry" />
        </mxCell>
        <mxCell id="31C0_dviIw9XybhIcKqn-5" value="First lamp accepted the signal" style="text;html=1;strokeColor=none;fillColor=none;align=center;verticalAlign=middle;whiteSpace=wrap;rounded=0;" parent="WIyWlLk6GJQsqaUBKTNV-1" vertex="1">
          <mxGeometry x="300" y="229" width="66" height="41" as="geometry" />
        </mxCell>
        <mxCell id="N22O1NM5djoZ6wNGShHS-2" value="2 minute&lt;br&gt;&amp;nbsp;without&amp;nbsp;notification" style="text;html=1;strokeColor=none;fillColor=none;align=center;verticalAlign=middle;whiteSpace=wrap;rounded=0;" vertex="1" parent="WIyWlLk6GJQsqaUBKTNV-1">
          <mxGeometry x="80" y="210" width="40" height="20" as="geometry" />
        </mxCell>
        <mxCell id="N22O1NM5djoZ6wNGShHS-3" value="" style="endArrow=classic;html=1;exitX=0;exitY=0.5;exitDx=0;exitDy=0;entryX=0;entryY=1;entryDx=0;entryDy=0;edgeStyle=orthogonalEdgeStyle;curved=1;" edge="1" parent="WIyWlLk6GJQsqaUBKTNV-1" source="31C0_dviIw9XybhIcKqn-2" target="31C0_dviIw9XybhIcKqn-0">
          <mxGeometry width="50" height="50" relative="1" as="geometry">
            <mxPoint x="360" y="260" as="sourcePoint" />
            <mxPoint x="410" y="210" as="targetPoint" />
            <Array as="points">
              <mxPoint x="40" y="320" />
              <mxPoint x="20" y="320" />
              <mxPoint x="20" y="230" />
            </Array>
          </mxGeometry>
        </mxCell>
        <mxCell id="N22O1NM5djoZ6wNGShHS-8" value="" style="endArrow=classic;html=1;entryX=0.5;entryY=0;entryDx=0;entryDy=0;edgeStyle=orthogonalEdgeStyle;curved=1;exitX=0.75;exitY=0.5;exitDx=0;exitDy=0;exitPerimeter=0;" edge="1" parent="WIyWlLk6GJQsqaUBKTNV-1" source="N22O1NM5djoZ6wNGShHS-42">
          <mxGeometry width="50" height="50" relative="1" as="geometry">
            <mxPoint x="370" y="280" as="sourcePoint" />
            <mxPoint x="474" y="344.5" as="targetPoint" />
            <Array as="points">
              <mxPoint x="315" y="300" />
              <mxPoint x="474" y="300" />
            </Array>
          </mxGeometry>
        </mxCell>
        <mxCell id="N22O1NM5djoZ6wNGShHS-28" value="вход" style="html=1;verticalAlign=bottom;startArrow=circle;startFill=1;endArrow=open;startSize=6;endSize=8;" edge="1" parent="WIyWlLk6GJQsqaUBKTNV-1">
          <mxGeometry width="80" relative="1" as="geometry">
            <mxPoint x="280" y="60" as="sourcePoint" />
            <mxPoint x="280" y="160" as="targetPoint" />
          </mxGeometry>
        </mxCell>
        <mxCell id="N22O1NM5djoZ6wNGShHS-32" value="First lamp send the signal" style="text;html=1;strokeColor=none;fillColor=none;align=center;verticalAlign=middle;whiteSpace=wrap;rounded=0;" vertex="1" parent="WIyWlLk6GJQsqaUBKTNV-1">
          <mxGeometry x="400" y="264.5" width="106" height="40" as="geometry" />
        </mxCell>
        <mxCell id="N22O1NM5djoZ6wNGShHS-42" value="" style="shape=line;html=1;strokeWidth=6;" vertex="1" parent="WIyWlLk6GJQsqaUBKTNV-1">
          <mxGeometry x="240" y="270" width="100" height="10" as="geometry" />
        </mxCell>
        <mxCell id="Qg1H0YtPmP2lJ7F_pxp_-2" value="" style="endArrow=classic;html=1;exitX=0.5;exitY=1;exitDx=0;exitDy=0;" edge="1" parent="WIyWlLk6GJQsqaUBKTNV-1" source="31C0_dviIw9XybhIcKqn-0" target="N22O1NM5djoZ6wNGShHS-42">
          <mxGeometry width="50" height="50" relative="1" as="geometry">
            <mxPoint x="280" y="400" as="sourcePoint" />
            <mxPoint x="330" y="350" as="targetPoint" />
          </mxGeometry>
        </mxCell>
        <mxCell id="Qg1H0YtPmP2lJ7F_pxp_-3" value="" style="endArrow=classic;html=1;exitX=0.327;exitY=0.9;exitDx=0;exitDy=0;exitPerimeter=0;entryX=1;entryY=0.5;entryDx=0;entryDy=0;edgeStyle=orthogonalEdgeStyle;curved=1;" edge="1" parent="WIyWlLk6GJQsqaUBKTNV-1" source="N22O1NM5djoZ6wNGShHS-42" target="31C0_dviIw9XybhIcKqn-2">
          <mxGeometry width="50" height="50" relative="1" as="geometry">
            <mxPoint x="280" y="400" as="sourcePoint" />
            <mxPoint x="330" y="350" as="targetPoint" />
          </mxGeometry>
        </mxCell>
        <mxCell id="Mt1AsdEB4PwtF7tIOMVr-1" value="" style="ellipse;html=1;shape=endState;fillColor=#000000;strokeColor=#D5E8D4;" vertex="1" parent="WIyWlLk6GJQsqaUBKTNV-1">
          <mxGeometry x="460" y="344.5" width="30" height="30" as="geometry" />
        </mxCell>
      </root>
    </mxGraphModel>
  </diagram>
  <diagram id="gg5mFuH4ZvcJ-VT_LM-5" name="Page-2">
    <mxGraphModel dx="742" dy="477" grid="1" gridSize="10" guides="1" tooltips="1" connect="1" arrows="1" fold="1" page="1" pageScale="1" pageWidth="827" pageHeight="1169" math="0" shadow="0">
      <root>
        <mxCell id="y3hNn8C82xUI6MdfAONI-0" />
        <mxCell id="y3hNn8C82xUI6MdfAONI-1" parent="y3hNn8C82xUI6MdfAONI-0" />
        <mxCell id="y3hNn8C82xUI6MdfAONI-5" value="" style="rounded=1;whiteSpace=wrap;html=1;" vertex="1" parent="y3hNn8C82xUI6MdfAONI-1">
          <mxGeometry x="414" y="340" width="120" height="60" as="geometry" />
        </mxCell>
        <mxCell id="y3hNn8C82xUI6MdfAONI-6" value="Lamp accepted the signal" style="text;html=1;strokeColor=none;fillColor=none;align=center;verticalAlign=middle;whiteSpace=wrap;rounded=0;" vertex="1" parent="y3hNn8C82xUI6MdfAONI-1">
          <mxGeometry x="431" y="344.5" width="86" height="51" as="geometry" />
        </mxCell>
        <mxCell id="y3hNn8C82xUI6MdfAONI-8" value="" style="rounded=1;whiteSpace=wrap;html=1;fillColor=#d5e8d4;strokeColor=#82b366;" vertex="1" parent="y3hNn8C82xUI6MdfAONI-1">
          <mxGeometry x="170" y="450" width="120" height="60" as="geometry" />
        </mxCell>
        <mxCell id="y3hNn8C82xUI6MdfAONI-9" value="ON" style="text;html=1;strokeColor=none;fillColor=none;align=center;verticalAlign=middle;whiteSpace=wrap;rounded=0;" vertex="1" parent="y3hNn8C82xUI6MdfAONI-1">
          <mxGeometry x="210" y="470" width="40" height="20" as="geometry" />
        </mxCell>
        <mxCell id="y3hNn8C82xUI6MdfAONI-10" value="" style="endArrow=classic;html=1;exitX=0.25;exitY=0.5;exitDx=0;exitDy=0;exitPerimeter=0;edgeStyle=orthogonalEdgeStyle;curved=1;" edge="1" parent="y3hNn8C82xUI6MdfAONI-1" source="q4TKUZtONn3BMO6hauoD-0">
          <mxGeometry width="50" height="50" relative="1" as="geometry">
            <mxPoint x="360" y="480" as="sourcePoint" />
            <mxPoint x="290" y="480" as="targetPoint" />
            <Array as="points">
              <mxPoint x="453" y="480" />
              <mxPoint x="290" y="480" />
            </Array>
          </mxGeometry>
        </mxCell>
        <mxCell id="y3hNn8C82xUI6MdfAONI-11" value="2 minute&lt;br&gt;&amp;nbsp;without&amp;nbsp;notification" style="text;html=1;strokeColor=none;fillColor=none;align=center;verticalAlign=middle;whiteSpace=wrap;rounded=0;" vertex="1" parent="y3hNn8C82xUI6MdfAONI-1">
          <mxGeometry x="40" y="520" width="40" height="20" as="geometry" />
        </mxCell>
        <mxCell id="y3hNn8C82xUI6MdfAONI-12" value="" style="rounded=1;whiteSpace=wrap;html=1;fillColor=#f8cecc;strokeColor=#b85450;" vertex="1" parent="y3hNn8C82xUI6MdfAONI-1">
          <mxGeometry x="180" y="580" width="120" height="60" as="geometry" />
        </mxCell>
        <mxCell id="y3hNn8C82xUI6MdfAONI-13" value="OFF" style="text;html=1;strokeColor=none;fillColor=none;align=center;verticalAlign=middle;whiteSpace=wrap;rounded=0;" vertex="1" parent="y3hNn8C82xUI6MdfAONI-1">
          <mxGeometry x="220" y="600" width="40" height="20" as="geometry" />
        </mxCell>
        <mxCell id="y3hNn8C82xUI6MdfAONI-16" value="" style="rounded=1;whiteSpace=wrap;html=1;" vertex="1" parent="y3hNn8C82xUI6MdfAONI-1">
          <mxGeometry x="408" y="555" width="120" height="60" as="geometry" />
        </mxCell>
        <mxCell id="y3hNn8C82xUI6MdfAONI-17" value="Lamp accepted the signal" style="text;html=1;strokeColor=none;fillColor=none;align=center;verticalAlign=middle;whiteSpace=wrap;rounded=0;" vertex="1" parent="y3hNn8C82xUI6MdfAONI-1">
          <mxGeometry x="428" y="564" width="86" height="51" as="geometry" />
        </mxCell>
        <mxCell id="y3hNn8C82xUI6MdfAONI-19" value="Lamp send the signal to the next" style="text;html=1;strokeColor=none;fillColor=none;align=center;verticalAlign=middle;whiteSpace=wrap;rounded=0;" vertex="1" parent="y3hNn8C82xUI6MdfAONI-1">
          <mxGeometry x="610" y="450" width="106" height="40" as="geometry" />
        </mxCell>
        <mxCell id="y3hNn8C82xUI6MdfAONI-20" value="" style="endArrow=classic;html=1;exitX=0.006;exitY=0.389;exitDx=0;exitDy=0;exitPerimeter=0;entryX=1;entryY=0.75;entryDx=0;entryDy=0;" edge="1" parent="y3hNn8C82xUI6MdfAONI-1" source="y3hNn8C82xUI6MdfAONI-16" target="y3hNn8C82xUI6MdfAONI-8">
          <mxGeometry width="50" height="50" relative="1" as="geometry">
            <mxPoint x="280" y="400" as="sourcePoint" />
            <mxPoint x="330" y="350" as="targetPoint" />
          </mxGeometry>
        </mxCell>
        <mxCell id="y3hNn8C82xUI6MdfAONI-21" value="" style="endArrow=classic;html=1;edgeStyle=orthogonalEdgeStyle;curved=1;exitX=1;exitY=0.5;exitDx=0;exitDy=0;entryX=1;entryY=0.5;entryDx=0;entryDy=0;" edge="1" parent="y3hNn8C82xUI6MdfAONI-1" source="y3hNn8C82xUI6MdfAONI-16" target="y3hNn8C82xUI6MdfAONI-5">
          <mxGeometry width="50" height="50" relative="1" as="geometry">
            <mxPoint x="280" y="400" as="sourcePoint" />
            <mxPoint x="330" y="350" as="targetPoint" />
            <Array as="points">
              <mxPoint x="600" y="585" />
              <mxPoint x="600" y="370" />
            </Array>
          </mxGeometry>
        </mxCell>
        <mxCell id="q4TKUZtONn3BMO6hauoD-0" value="" style="shape=line;html=1;strokeWidth=6;" vertex="1" parent="y3hNn8C82xUI6MdfAONI-1">
          <mxGeometry x="428" y="440" width="100" height="10" as="geometry" />
        </mxCell>
        <mxCell id="q4TKUZtONn3BMO6hauoD-1" value="" style="endArrow=classic;html=1;exitX=0.5;exitY=1;exitDx=0;exitDy=0;" edge="1" parent="y3hNn8C82xUI6MdfAONI-1" source="y3hNn8C82xUI6MdfAONI-5" target="q4TKUZtONn3BMO6hauoD-0">
          <mxGeometry width="50" height="50" relative="1" as="geometry">
            <mxPoint x="360" y="480" as="sourcePoint" />
            <mxPoint x="410" y="430" as="targetPoint" />
          </mxGeometry>
        </mxCell>
        <mxCell id="q4TKUZtONn3BMO6hauoD-4" value="" style="endArrow=classic;html=1;exitX=0;exitY=0.5;exitDx=0;exitDy=0;edgeStyle=orthogonalEdgeStyle;curved=1;entryX=0;entryY=0.5;entryDx=0;entryDy=0;" edge="1" parent="y3hNn8C82xUI6MdfAONI-1" source="y3hNn8C82xUI6MdfAONI-8" target="y3hNn8C82xUI6MdfAONI-12">
          <mxGeometry width="50" height="50" relative="1" as="geometry">
            <mxPoint x="360" y="480" as="sourcePoint" />
            <mxPoint x="120" y="620" as="targetPoint" />
            <Array as="points">
              <mxPoint x="130" y="480" />
              <mxPoint x="130" y="610" />
            </Array>
          </mxGeometry>
        </mxCell>
        <mxCell id="q4TKUZtONn3BMO6hauoD-5" value="" style="endArrow=classic;html=1;exitX=0.6;exitY=0.833;exitDx=0;exitDy=0;exitPerimeter=0;entryX=0.5;entryY=0;entryDx=0;entryDy=0;" edge="1" parent="y3hNn8C82xUI6MdfAONI-1" source="q4TKUZtONn3BMO6hauoD-0" target="y3hNn8C82xUI6MdfAONI-16">
          <mxGeometry width="50" height="50" relative="1" as="geometry">
            <mxPoint x="360" y="480" as="sourcePoint" />
            <mxPoint x="410" y="430" as="targetPoint" />
            <Array as="points">
              <mxPoint x="478" y="510" />
            </Array>
          </mxGeometry>
        </mxCell>
        <mxCell id="bEl-ZG_ak9-WbZNsPIhs-0" value="вход" style="html=1;verticalAlign=bottom;startArrow=circle;startFill=1;endArrow=open;startSize=6;endSize=8;" edge="1" parent="y3hNn8C82xUI6MdfAONI-1">
          <mxGeometry width="80" relative="1" as="geometry">
            <mxPoint x="473.5" y="230" as="sourcePoint" />
            <mxPoint x="473.5" y="330" as="targetPoint" />
          </mxGeometry>
        </mxCell>
        <mxCell id="RgBd5mkdQJjb-jcfMcf9-1" value="" style="ellipse;html=1;shape=endState;fillColor=#000000;strokeColor=#D5E8D4;" vertex="1" parent="y3hNn8C82xUI6MdfAONI-1">
          <mxGeometry x="260" y="690" width="30" height="30" as="geometry" />
        </mxCell>
        <mxCell id="RgBd5mkdQJjb-jcfMcf9-2" value="" style="endArrow=classic;html=1;exitX=0.561;exitY=1.039;exitDx=0;exitDy=0;exitPerimeter=0;entryX=0.5;entryY=0;entryDx=0;entryDy=0;" edge="1" parent="y3hNn8C82xUI6MdfAONI-1" source="y3hNn8C82xUI6MdfAONI-12" target="RgBd5mkdQJjb-jcfMcf9-1">
          <mxGeometry width="50" height="50" relative="1" as="geometry">
            <mxPoint x="360" y="620" as="sourcePoint" />
            <mxPoint x="410" y="570" as="targetPoint" />
          </mxGeometry>
        </mxCell>
      </root>
    </mxGraphModel>
  </diagram>
</mxfile>
